<svg xmlns="http://www.w3.org/2000/svg" viewBox="0 0 512 512">
  <defs>
    <style>
      .text-primary { font-family: 'Montserrat', 'Segoe UI', sans-serif; font-weight: 700; fill: #003a70; }
      .text-secondary { font-family: 'Montserrat', 'Segoe UI', sans-serif; font-weight: 600; fill: #004a84; letter-spacing: 6px; }
    </style>
  </defs>
  <circle cx="256" cy="256" r="246" fill="#ffffff" stroke="#8fb14c" stroke-width="20" />
  <g transform="translate(60 150) scale(0.9)">
    <g transform="translate(0 55)">
      <rect x="0" y="-20" width="90" height="12" rx="6" ry="6" fill="#003a70" />
      <rect x="0" y="2" width="90" height="12" rx="6" ry="6" fill="#003a70" opacity="0.7" />
      <rect x="0" y="24" width="90" height="12" rx="6" ry="6" fill="#003a70" opacity="0.5" />
    </g>
    <g transform="translate(100 0)">
      <circle cx="65" cy="120" r="55" fill="none" stroke="#003a70" stroke-width="14" />
      <circle cx="65" cy="120" r="18" fill="#003a70" />
      <g fill="none" stroke="#003a70" stroke-width="10" stroke-linecap="round">
        <line x1="65" y1="65" x2="65" y2="95" />
        <line x1="65" y1="145" x2="65" y2="175" />
        <line x1="110" y1="120" x2="140" y2="120" />
        <line x1="-10" y1="120" x2="20" y2="120" />
        <line x1="101" y1="84" x2="123" y2="62" />
        <line x1="26" y1="179" x2="48" y2="157" />
        <line x1="26" y1="61" x2="48" y2="83" />
        <line x1="101" y1="156" x2="123" y2="178" />
      </g>
    </g>
  </g>
  <text class="text-primary" font-size="78" x="235" y="225">Patin</text>
  <text class="text-primary" font-size="78" x="235" y="310">Carrera</text>
  <text class="text-secondary" font-size="30" x="256" y="382" text-anchor="middle">DONDE EMPIEZA LA VELOCIDAD</text>
</svg>
